<svg width="512" xmlns='http://www.w3.org/2000/svg' style='font-size:initial;' class="pikchr" viewBox="0 0 402.163 381.6">
<path d="M2.16,32.4L208.483,32.4L208.483,2.16L2.16,2.16Z"  style="fill:none;stroke-width:2.16;stroke:rgb(0,0,0);" />
<text x="105.322" y="17.28" text-anchor="middle" fill="rgb(0,0,0)" dominant-baseline="central">Sony Access Controller</text>
<polygon points="105.322,104.4 101.002,92.88 109.642,92.88" style="fill:rgb(0,0,0)"/>
<path d="M105.322,32.4L105.322,98.64"  style="fill:none;stroke-width:2.16;stroke:rgb(0,0,0);" />
<text x="105.322" y="68.4" text-anchor="middle" fill="rgb(0,0,0)" dominant-baseline="central">USB cable</text>
<path d="M48.0096,134.64L162.634,134.64L162.634,104.4L48.0096,104.4Z"  style="fill:none;stroke-width:2.16;stroke:rgb(0,0,0);" />
<text x="105.322" y="119.52" text-anchor="middle" fill="rgb(0,0,0)" dominant-baseline="central">gigaxac_usb</text>
<polygon points="105.322,206.64 101.002,195.12 109.642,195.12" style="fill:rgb(0,0,0)"/>
<path d="M105.322,134.64L105.322,200.88"  style="fill:none;stroke-width:2.16;stroke:rgb(0,0,0);" />
<text x="105.322" y="170.64" text-anchor="middle" fill="rgb(0,0,0)" dominant-baseline="central">USB cable</text>
<path d="M16.7328,257.04L193.91,257.04L193.91,206.64L16.7328,206.64Z"  style="fill:none;stroke-width:2.16;stroke:rgb(0,0,0);" />
<text x="105.322" y="221.76" text-anchor="middle" fill="rgb(0,0,0)" dominant-baseline="central">Microsoft Xbox</text>
<text x="105.322" y="241.92" text-anchor="middle" fill="rgb(0,0,0)" dominant-baseline="central">Adaptive Controller</text>
<polygon points="105.322,329.04 101.002,317.52 109.642,317.52" style="fill:rgb(0,0,0)"/>
<path d="M105.322,257.04L105.322,323.28"  style="fill:none;stroke-width:2.16;stroke:rgb(0,0,0);" />
<text x="105.322" y="281.34" text-anchor="middle" fill="rgb(0,0,0)" dominant-baseline="central">USB cable</text>
<text x="105.322" y="304.74" text-anchor="middle" fill="rgb(0,0,0)" dominant-baseline="central">or Bluetooth</text>
<path d="M16.6752,379.44L193.968,379.44L193.968,329.04L16.6752,329.04Z"  style="fill:none;stroke-width:2.16;stroke:rgb(0,0,0);" />
<text x="105.322" y="344.16" text-anchor="middle" fill="rgb(0,0,0)" dominant-baseline="central">Microsoft Xbox One</text>
<text x="105.322" y="364.32" text-anchor="middle" fill="rgb(0,0,0)" dominant-baseline="central">Console/Windows</text>
<polygon points="193.968,354.24 205.488,349.92 205.488,358.56" style="fill:rgb(0,0,0)"/>
<path d="M199.728,354.24L301.968,354.24"  style="fill:none;stroke-width:2.16;stroke:rgb(0,0,0);" />
<text x="247.968" y="342.54" text-anchor="middle" fill="rgb(0,0,0)" dominant-baseline="central">Bluetooth</text>
<text x="247.968" y="365.94" text-anchor="middle" fill="rgb(0,0,0)" dominant-baseline="central">or USB</text>
<path d="M301.968,379.44L400.003,379.44L400.003,329.04L301.968,329.04Z"  style="fill:none;stroke-width:2.16;stroke:rgb(0,0,0);" />
<text x="350.986" y="344.16" text-anchor="middle" fill="rgb(0,0,0)" dominant-baseline="central">Xbox One</text>
<text x="350.986" y="364.32" text-anchor="middle" fill="rgb(0,0,0)" dominant-baseline="central">Controller</text>
</svg>

