<svg width="512" xmlns='http://www.w3.org/2000/svg' style='font-size:initial;' class="pikchr" viewBox="0 0 396.806 443.52">
<path d="M10.8576,32.4L217.181,32.4L217.181,2.16L10.8576,2.16Z"  style="fill:none;stroke-width:2.16;stroke:rgb(0,0,0);" />
<text x="114.019" y="17.28" text-anchor="middle" fill="rgb(0,0,0)" dominant-baseline="central">Sony Access Controller</text>
<polygon points="114.019,104.4 109.699,92.88 118.339,92.88" style="fill:rgb(0,0,0)"/>
<path d="M114.019,32.4L114.019,98.64"  style="fill:none;stroke-width:2.16;stroke:rgb(0,0,0);" />
<text x="114.019" y="68.4" text-anchor="middle" fill="rgb(0,0,0)" dominant-baseline="central">USB cable</text>
<path d="M56.7072,134.64L171.331,134.64L171.331,104.4L56.7072,104.4Z"  style="fill:none;stroke-width:2.16;stroke:rgb(0,0,0);" />
<text x="114.019" y="119.52" text-anchor="middle" fill="rgb(0,0,0)" dominant-baseline="central">gigaxac_usb</text>
<polygon points="114.019,206.64 109.699,195.12 118.339,195.12" style="fill:rgb(0,0,0)"/>
<path d="M114.019,134.64L114.019,200.88"  style="fill:none;stroke-width:2.16;stroke:rgb(0,0,0);" />
<text x="114.019" y="170.64" text-anchor="middle" fill="rgb(0,0,0)" dominant-baseline="central">USB cable</text>
<path d="M2.16,236.88L225.878,236.88L225.878,206.64L2.16,206.64Z"  style="fill:none;stroke-width:2.16;stroke:rgb(0,0,0);" />
<text x="114.019" y="221.76" text-anchor="middle" fill="rgb(0,0,0)" dominant-baseline="central">Xbox Adaptive Controller</text>
<polygon points="114.019,308.88 109.699,297.36 118.339,297.36" style="fill:rgb(0,0,0)"/>
<path d="M114.019,236.88L114.019,303.12"  style="fill:none;stroke-width:2.16;stroke:rgb(0,0,0);" />
<text x="114.019" y="272.88" text-anchor="middle" fill="rgb(0,0,0)" dominant-baseline="central">USB cable</text>
<path d="M26.064,339.12L201.974,339.12L201.974,308.88L26.064,308.88Z"  style="fill:none;stroke-width:2.16;stroke:rgb(0,0,0);" />
<text x="114.019" y="324" text-anchor="middle" fill="rgb(0,0,0)" dominant-baseline="central">Mayflash Magic-NS</text>
<polygon points="201.974,324 213.494,319.68 213.494,328.32" style="fill:rgb(0,0,0)"/>
<path d="M207.734,324L309.974,324"  style="fill:none;stroke-width:2.16;stroke:rgb(0,0,0);" />
<text x="255.974" y="312.3" text-anchor="middle" fill="rgb(0,0,0)" dominant-baseline="central">Bluetooth</text>
<text x="255.974" y="335.7" text-anchor="middle" fill="rgb(0,0,0)" dominant-baseline="central"></text>
<path d="M309.974,339.12L394.646,339.12L394.646,308.88L309.974,308.88Z"  style="fill:none;stroke-width:2.16;stroke:rgb(0,0,0);" />
<text x="352.31" y="324" text-anchor="middle" fill="rgb(0,0,0)" dominant-baseline="central">Joy-Cons</text>
<polygon points="114.019,411.12 109.699,399.6 118.339,399.6" style="fill:rgb(0,0,0)"/>
<path d="M114.019,339.12L114.019,405.36"  style="fill:none;stroke-width:2.16;stroke:rgb(0,0,0);" />
<text x="114.019" y="375.12" text-anchor="middle" fill="rgb(0,0,0)" dominant-baseline="central">USB cable</text>
<path d="M38.2752,441.36L189.763,441.36L189.763,411.12L38.2752,411.12Z"  style="fill:none;stroke-width:2.16;stroke:rgb(0,0,0);" />
<text x="114.019" y="426.24" text-anchor="middle" fill="rgb(0,0,0)" dominant-baseline="central">Nintendo Switch</text>
</svg>

