<svg width="512" xmlns='http://www.w3.org/2000/svg' style='font-size:initial;' class="pikchr" viewBox="0 0 476.352 463.68">
<path d="M2.16,32.4L208.483,32.4L208.483,2.16L2.16,2.16Z"  style="fill:none;stroke-width:2.16;stroke:rgb(0,0,0);" />
<text x="105.322" y="17.28" text-anchor="middle" fill="rgb(0,0,0)" dominant-baseline="central">Sony Access Controller</text>
<polygon points="105.322,104.4 101.002,92.88 109.642,92.88" style="fill:rgb(0,0,0)"/>
<path d="M105.322,32.4L105.322,98.64"  style="fill:none;stroke-width:2.16;stroke:rgb(0,0,0);" />
<text x="105.322" y="68.4" text-anchor="middle" fill="rgb(0,0,0)" dominant-baseline="central">USB  cable</text>
<path d="M48.0096,134.64L162.634,134.64L162.634,104.4L48.0096,104.4Z"  style="fill:none;stroke-width:2.16;stroke:rgb(0,0,0);" />
<text x="105.322" y="119.52" text-anchor="middle" fill="rgb(0,0,0)" dominant-baseline="central">gigaxac_usb</text>
<polygon points="105.322,206.64 101.002,195.12 109.642,195.12" style="fill:rgb(0,0,0)"/>
<path d="M105.322,134.64L105.322,200.88"  style="fill:none;stroke-width:2.16;stroke:rgb(0,0,0);" />
<text x="105.322" y="170.64" text-anchor="middle" fill="rgb(0,0,0)" dominant-baseline="central">USB  cable</text>
<path d="M16.7328,257.04L193.91,257.04L193.91,206.64L16.7328,206.64Z"  style="fill:none;stroke-width:2.16;stroke:rgb(0,0,0);" />
<text x="105.322" y="221.76" text-anchor="middle" fill="rgb(0,0,0)" dominant-baseline="central">Microsoft Xbox</text>
<text x="105.322" y="241.92" text-anchor="middle" fill="rgb(0,0,0)" dominant-baseline="central">Adaptive Controller</text>
<polygon points="105.322,329.04 101.002,317.52 109.642,317.52" style="fill:rgb(0,0,0)"/>
<path d="M105.322,257.04L105.322,323.28"  style="fill:none;stroke-width:2.16;stroke:rgb(0,0,0);" />
<text x="105.322" y="293.04" text-anchor="middle" fill="rgb(0,0,0)" dominant-baseline="central">USB  cable</text>
<path d="M7.5744,359.28L203.069,359.28L203.069,329.04L7.5744,329.04Z"  style="fill:none;stroke-width:2.16;stroke:rgb(0,0,0);" />
<text x="105.322" y="344.16" text-anchor="middle" fill="rgb(0,0,0)" dominant-baseline="central">Mayflash Magic-S Pro</text>
<polygon points="203.069,344.16 214.589,339.84 214.589,348.48" style="fill:rgb(0,0,0)"/>
<path d="M208.829,344.16L311.069,344.16"  style="fill:none;stroke-width:2.16;stroke:rgb(0,0,0);" />
<text x="257.069" y="332.46" text-anchor="middle" fill="rgb(0,0,0)" dominant-baseline="central">Bluetooth</text>
<text x="257.069" y="355.86" text-anchor="middle" fill="rgb(0,0,0)" dominant-baseline="central"></text>
<path d="M311.069,359.28L474.192,359.28L474.192,329.04L311.069,329.04Z"  style="fill:none;stroke-width:2.16;stroke:rgb(0,0,0);" />
<text x="392.63" y="344.16" text-anchor="middle" fill="rgb(0,0,0)" dominant-baseline="central">Sony DualShock 4</text>
<polygon points="105.322,431.28 101.002,419.76 109.642,419.76" style="fill:rgb(0,0,0)"/>
<path d="M105.322,359.28L105.322,425.52"  style="fill:none;stroke-width:2.16;stroke:rgb(0,0,0);" />
<text x="105.322" y="395.28" text-anchor="middle" fill="rgb(0,0,0)" dominant-baseline="central">USB  cable</text>
<path d="M20.9376,461.52L189.706,461.52L189.706,431.28L20.9376,431.28Z"  style="fill:none;stroke-width:2.16;stroke:rgb(0,0,0);" />
<text x="105.322" y="446.4" text-anchor="middle" fill="rgb(0,0,0)" dominant-baseline="central">Sony PlayStation 4</text>
</svg>

